<?xml version="1.0" encoding="utf-8"?>
<!-- Generator: Adobe Illustrator 16.0.0, SVG Export Plug-In . SVG Version: 6.00 Build 0)  -->
<!DOCTYPE svg PUBLIC "-//W3C//DTD SVG 1.1 Tiny//EN" "http://www.w3.org/Graphics/SVG/1.1/DTD/svg11-tiny.dtd">
<svg version="1.1" baseProfile="tiny" id="Layer_1" xmlns="http://www.w3.org/2000/svg" xmlns:xlink="http://www.w3.org/1999/xlink"
	 x="0px" y="0px" width="941.95px" height="621.14px" viewBox="0 0 941.95 621.14" xml:space="preserve">
<path fill="none" d="M422.6,618.98c0.01,0.11,0.02,0.22,0.03,0.33c8.17-0.61,16.36-1.11,24.52-1.86c8.41-0.77,16.81-1.74,25.19-2.76
	c1.56-0.19,3.23-0.74,4.52-1.62c3.45-2.34,6.72-4.94,10.05-7.46c2.4-1.81,4.81-3.59,7.15-5.47c2.38-1.91,4.69-3.92,7.02-5.89
	c3.34-2.83,6.69-5.66,10.02-8.49c1.43-1.21,2.78-2.52,4.28-3.65c1.75-1.31,3.74-2.31,5.41-3.7c4.26-3.58,8.23-7.53,12.64-10.93
	c7.03-5.42,12.69-12.22,18.98-18.37c3.7-3.63,7.05-7.62,10.52-11.48c1.21-1.35,2.33-2.78,3.45-4.21c2.54-3.24,5.06-6.49,7.59-9.74
	c2.34-3,4.77-5.94,7.01-9.02c1.43-1.96,2.47-4.21,3.88-6.19c2.99-4.16,6.24-8.13,9.14-12.34c2.3-3.34,4.37-6.86,6.32-10.42
	c1.56-2.84,2.73-5.89,4.18-8.8c0.89-1.78,1.96-3.48,3-5.19c1.17-1.92,2.52-3.75,3.58-5.73c2.69-5,5.25-10.07,7.88-15.1
	c2.06-3.94,4.08-7.89,6.22-11.78c3.25-5.92,6.55-11.81,9.89-17.68c3.06-5.38,6.27-10.68,9.31-16.08c1.59-2.83,2.94-5.79,4.41-8.69
	c2.2-4.34,4.62-8.59,6.56-13.04c3.71-8.51,6.74-17.27,7.87-26.56c0.55-4.53,0.94-9.09,1.22-13.65c0.29-4.62,0.18-9.27,0.57-13.88
	c0.71-8.36,1.66-16.69,2.52-25.04c0.27-2.67,0.22-5.44,0.94-7.98c0.77-2.72,2.11-5.33,3.52-7.8c3.06-5.35,4.52-11.25,6.06-17.11
	c1.37-5.2,2.48-10.46,3.6-15.72c0.82-3.83,1.12-7.67-0.98-11.26c-0.57-0.97-1.25-1.86-1.78-2.85c-2.89-5.36-8.04-7.15-13.45-7.53
	c-4.28-0.31-8.79-0.15-12.88,1.89c-2.29,1.14-4.67,2.09-6.92,3.3c-1.42,0.76-2.7,1.79-3.99,2.78c-1.77,1.35-3.37,2.97-5.26,4.1
	c-4.45,2.67-9.19,4.88-13.52,7.72c-3.42,2.25-6.74,4.87-9.48,7.88c-4.53,4.98-8.66,10.35-12.75,15.71
	c-1.46,1.91-2.29,4.29-3.46,6.44c-1.16,2.13-2.38,4.23-3.56,6.35c-0.24,0.44-0.43,0.91-0.71,1.32c-3.72,5.47-4.82,11.85-6.37,18.08
	c-0.45,1.81-0.94,3.61-1.34,5.42c-0.84,3.89-1.84,7.77-2.39,11.71c-0.49,3.53-0.72,6.97-2.64,10.23c-2.12,3.58-3.56,7.56-5.3,11.36
	c-1.33,2.9-2.43,5.94-4.1,8.63c-1.96,3.19-4.34,6.13-6.67,9.07c-4.84,6.11-9.82,12.11-14.63,18.25c-1.42,1.81-2.43,3.93-3.65,5.89
	c-0.65,1.04-1.18,2.24-2.08,3.01c-1.18,1.01-4.71,0.55-5.81-0.67c-1.87-2.09-3.97-4.11-5.3-6.53c-2.22-4.04-4.09-8.3-5.76-12.6
	c-1.49-3.84-2.6-7.83-3.71-11.81c-1.52-5.47-3-10.97-4.27-16.51c-0.92-4.02-1.59-8.1-2.18-12.19c-0.74-5.14-1.55-10.28-1.84-15.45
	c-0.27-4.92,0.05-9.87,0.18-14.8c0.2-7.83,0.23-15.66,1.51-23.43c0.81-4.94,1.18-9.95,1.87-14.91c0.97-6.88,2.07-13.74,3.09-20.61
	c0.78-5.2,1.51-10.4,2.28-15.59c0.61-4.14,1.34-8.26,1.85-12.41c0.65-5.28,0.96-10.6,1.75-15.86c0.8-5.31,2.02-10.56,3.02-15.84
	c0.99-5.23,1.98-10.46,2.9-15.7c0.74-4.19,1.48-8.38,2.05-12.59c0.43-3.16,0.51-6.36,0.88-9.52c0.68-5.91,1.46-11.8,2.19-17.71
	c0.78-6.39,1.46-12.8,2.35-19.18c0.87-6.2,2.21-12.34,2.89-18.56c0.6-5.46,0.56-10.99,0.8-16.49c0.23-5.18-0.55-10.25-1.8-15.25
	c-0.38-1.51-0.92-3-1.62-4.38c-0.33-0.66-1.21-1.05-1.82-1.59c-0.36-0.32-0.93-0.66-0.96-1.03c-0.44-4.51-1.99-8.63-4.11-12.59
	c-1.1-2.05-2.71-3.48-4.96-4.01c-2.61-0.62-5.25-1.23-7.91-1.54c-4.94-0.57-9.9-0.78-14.44,1.82c-1.68,0.96-3.21,2.16-4.85,3.19
	c-1.61,1.01-2.73,2.36-3.35,4.15c-0.51,1.48-1.06,2.95-1.53,4.44c-0.36,1.15-1.16,1.58-2.24,2c-1.53,0.6-3.07,1.39-4.32,2.43
	c-2.12,1.76-2.72,4.48-3.42,6.96c-1.18,4.15-1.92,8.43-2.94,12.62c-1.92,7.84-4.15,15.62-5.8,23.52
	c-1.44,6.92-2.28,13.97-3.32,20.97c-1.37,9.16-2.65,18.34-4.03,27.5c-0.92,6.13-1.9,12.25-2.94,18.36
	c-0.95,5.62-2.04,11.21-3.01,16.83c-1.35,7.77-2.64,15.55-3.98,23.31c-0.39,2.28-0.97,4.54-1.29,6.83
	c-0.52,3.78-0.84,7.58-1.34,11.36c-0.51,3.79-1.17,7.55-1.71,11.34c-0.89,6.32-1.77,12.64-2.59,18.98
	c-0.55,4.28-1.03,8.57-1.44,12.86c-0.16,1.74,0.09,3.52-0.08,5.25c-0.75,7.25-3.23,14-6.21,20.58c-0.63,1.4-1.75,2.36-3.33,2.39
	c-1.46,0.03-2.61-0.66-3.3-2.04c-0.34-0.67-0.85-1.24-1.28-1.86c-1.97-2.86-3.68-5.87-4.08-9.36c-0.61-5.33-1.52-10.61-1.64-16.02
	c-0.2-9.01-0.97-18.01-1.23-27.02c-0.26-8.89-0.16-17.79-0.26-26.69c-0.07-6.14-0.08-12.28-0.32-18.42
	c-0.3-7.82-0.82-15.63-1.23-23.45c-0.14-2.75-0.16-5.52-0.38-8.26c-0.5-6.24-1.03-12.48-1.66-18.71
	c-0.63-6.15-1.41-12.28-2.11-18.43c-0.35-3.11-0.73-6.21-0.98-9.33c-0.26-3.3-0.33-6.62-0.59-9.92c-0.61-7.67-1.56-15.32-1.86-23
	c-0.36-9.38-0.04-18.79-0.29-28.18c-0.13-5.13-0.73-10.25-1.3-15.35c-0.68-6.05-2.74-11.67-5.89-16.88c-0.7-1.16-1.55-2.1-3.15-1.98
	c-0.37,0.03-1.04-0.58-1.15-1.01c-0.56-2.24-0.94-4.53-1.48-6.78c-0.88-3.68-3.87-5.52-6.71-7.43c-0.68-0.46-1.68-0.44-2.54-0.6
	c-2.1-0.37-4.19-0.89-6.3-1.03c-1.83-0.12-3.69,0.18-5.53,0.35c-0.42,0.04-0.8,0.34-1.22,0.43c-2.88,0.68-5.91,1-8.63,2.09
	c-3.05,1.22-5.98,2.91-8.64,4.84c-1.41,1.02-2.45,2.87-3.09,4.56c-0.7,1.83-0.79,3.91-1.06,5.9c-0.19,1.47-0.67,2.65-1.75,3.8
	c-1.78,1.88-3.52,3.9-4.78,6.14c-1.93,3.45-3.08,7.15-3.05,11.27c0.04,5.5-0.49,11.01-0.6,16.52c-0.07,3.5,0.2,7.02,0.28,10.52
	c0.25,10.9,0.39,21.81,0.75,32.71c0.21,6.14,0.66,12.27,1.2,18.39c1,11.42,2.12,22.83,3.25,34.24c0.47,4.74,1.45,9.45,1.56,14.19
	c0.22,8.98,0.96,17.87,2.36,26.74c1.21,7.68,2.31,15.37,3.41,23.07c1,7,1.92,14.02,2.88,21.03c0.6,4.41,0.91,8.87,1.87,13.2
	c1.59,7.2,2.26,14.48,2.67,21.79c0.24,4.24-0.08,8.51,0.1,12.76c0.13,3.02-0.47,5.87-1.37,8.67c-0.95,2.99-4.33,3.67-6.36,1.32
	c-0.85-0.98-1.67-2.06-2.22-3.22c-1.11-2.37-2.09-4.81-3-7.26c-2.8-7.51-5.3-15.12-6.84-23c-1.25-6.39-2.59-12.76-3.68-19.17
	c-0.81-4.75-1.14-9.58-1.96-14.33c-1.16-6.79-2.59-13.53-3.87-20.3c-0.91-4.8-1.73-9.61-2.66-14.41c-0.71-3.62-1.62-7.21-2.28-10.84
	c-0.85-4.68-1.5-9.39-2.29-14.07c-0.82-4.87-1.85-9.71-2.53-14.6c-0.9-6.45-1.43-12.94-2.34-19.39c-1.41-9.98-2.82-19.97-4.62-29.88
	c-0.87-4.77-2.42-9.45-4.04-14.04c-1.18-3.33-2.79-6.57-4.61-9.61c-1.64-2.74-3.65-5.39-7.55-4.9c-1.34,0.17-1.66-0.89-2.02-1.83
	c-1.96-5.16-7.76-8.7-13.25-7.94c-1.57,0.22-3.11,0.72-4.63,1.2c-3.69,1.17-7.36,2.39-10.61,4.59c-0.72,0.49-1.5,0.9-2.3,1.24
	c-4.39,1.87-6.68,5.36-6.65,10.13c0,0.57-0.13,1.45-0.5,1.66c-2.67,1.54-3.49,4.27-4.8,6.76c-3.31,6.29-4.21,12.83-2.78,19.77
	c0.76,3.68,1.38,7.39,1.94,11.1c0.94,6.25,1.76,12.51,2.66,18.76c0.72,4.96,1.55,9.9,2.22,14.87c0.85,6.33,1.45,12.69,2.41,19
	c0.8,5.25,1.99,10.44,2.96,15.67c1.54,8.31,3.09,16.62,4.56,24.95c0.85,4.81,1.39,9.68,2.33,14.47c1.64,8.35,3.59,16.64,5.22,25
	c2.06,10.57,3.92,21.18,5.92,31.77c0.38,2.02,1.13,3.97,1.55,5.99c0.72,3.5,1.35,7.01,1.96,10.53c0.98,5.67,1.99,11.34,2.87,17.04
	c0.88,5.7,0.69,11.34-1.11,16.91c-0.71,2.21-2.09,3.82-3.71,5.31c-0.78,0.72-1.79,0.77-2.57,0.02c-1.07-1.03-2.26-2.07-2.97-3.34
	c-2.09-3.76-3.85-7.71-5.97-11.46c-3.42-6.02-5.95-12.39-8-18.96c-1.72-5.5-3.25-11.05-4.85-16.59c-0.88-3.06-1.78-6.13-2.58-9.22
	c-0.84-3.27-1.37-6.63-2.38-9.84c-2.19-6.99-4.7-13.88-6.89-20.87c-2.43-7.77-4.53-15.64-6.99-23.4
	c-1.96-6.19-4.22-12.29-6.37-18.42c-0.97-2.77-1.93-5.55-2.99-8.3c-0.96-2.49-1.96-4.97-3.12-7.37c-0.61-1.27-1.84-1.89-3.3-1.68
	c-1.11,0.16-1.6-0.39-1.93-1.32c-0.68-1.95-1.35-3.9-2.11-5.82c-1.26-3.21-3.02-4.05-6.34-3.18c-6.56,1.74-11.36,6.13-16.07,10.65
	c-0.66,0.63-0.98,1.33-2.1,0.69c-0.31-0.18-1.42,0.43-1.66,0.92c-0.32,0.67-0.34,1.61-0.17,2.37c0.56,2.44,1.21,4.85,1.92,7.25
	c0.36,1.23,0.94,2.38-0.75,3.12c-0.32,0.14-0.57,0.71-0.63,1.11c-0.4,2.78-1.05,5.58-1.01,8.36c0.05,3.55,0.57,7.12,1.09,10.65
	c1.59,10.77,3.26,21.53,4.92,32.29c1.31,8.47,2.6,16.95,3.97,25.42c1.04,6.37,2.14,12.72,3.31,19.07c1.54,8.31,3.15,16.61,4.77,24.9
	c2.52,12.82,6.68,25.19,10.53,37.64c3.57,11.55,7.63,22.95,11.06,34.54c3.32,11.22,6.24,22.57,9.09,33.92
	c1.72,6.85,2.97,13.83,4.48,20.74c1.58,7.22,3.15,14.44,4.85,21.63c1.41,5.97,2.92,11.92,4.55,17.83c1.56,5.68,3.1,11.38,5.06,16.92
	c2.55,7.2,5.27,14.35,8.35,21.33c2.4,5.43,5.31,10.65,8.27,15.8c3.79,6.59,8.64,12.47,13.62,18.15c6.47,7.39,13.3,14.47,20.12,21.55
	c5.74,5.96,12.02,11.29,19.12,15.64c4.39,2.69,8.77,5.34,13.83,6.63c3.68,0.94,7.4,1.81,10.98,3.06c5.34,1.87,10.9,2.33,16.42,2.82
	c7.47,0.67,14.98,0.95,22.49,1.23C413.2,619.12,417.9,618.98,422.6,618.98z"/>
<path fill-rule="evenodd" d="M422.6,618.98c-4.7,0-9.41,0.14-14.1-0.03c-7.5-0.28-15.01-0.56-22.49-1.23
	c-5.52-0.49-11.08-0.95-16.42-2.82c-3.58-1.25-7.3-2.12-10.98-3.06c-5.06-1.29-9.44-3.95-13.83-6.63
	c-7.09-4.34-13.37-9.68-19.12-15.64c-6.82-7.08-13.65-14.16-20.12-21.55c-4.98-5.69-9.84-11.56-13.62-18.15
	c-2.96-5.15-5.87-10.38-8.27-15.8c-3.08-6.98-5.81-14.14-8.35-21.33c-1.96-5.54-3.5-11.24-5.06-16.92
	c-1.63-5.91-3.14-11.86-4.55-17.83c-1.7-7.19-3.27-14.41-4.85-21.63c-1.51-6.91-2.76-13.88-4.48-20.74
	c-2.86-11.35-5.77-22.7-9.09-33.92c-3.43-11.59-7.49-22.99-11.06-34.54c-3.85-12.45-8.01-24.82-10.53-37.64
	c-1.63-8.29-3.24-16.59-4.77-24.9c-1.17-6.34-2.28-12.7-3.31-19.07c-1.38-8.46-2.67-16.94-3.97-25.42
	c-1.66-10.76-3.33-21.52-4.92-32.29c-0.52-3.53-1.04-7.09-1.09-10.65c-0.04-2.78,0.61-5.58,1.01-8.36c0.06-0.4,0.31-0.97,0.63-1.11
	c1.69-0.74,1.11-1.89,0.75-3.12c-0.71-2.4-1.37-4.81-1.92-7.25c-0.17-0.75-0.16-1.7,0.17-2.37c0.23-0.49,1.35-1.09,1.66-0.92
	c1.11,0.64,1.44-0.06,2.1-0.69c4.71-4.52,9.51-8.91,16.07-10.65c3.32-0.88,5.08-0.04,6.34,3.18c0.75,1.92,1.42,3.87,2.11,5.82
	c0.33,0.94,0.82,1.48,1.93,1.32c1.46-0.21,2.7,0.41,3.3,1.68c1.15,2.4,2.16,4.88,3.12,7.37c1.06,2.74,2.02,5.52,2.99,8.3
	c2.15,6.13,4.41,12.23,6.37,18.42c2.46,7.76,4.56,15.63,6.99,23.4c2.19,6.99,4.7,13.88,6.89,20.87c1.01,3.21,1.54,6.57,2.38,9.84
	c0.79,3.09,1.69,6.15,2.58,9.22c1.6,5.54,3.13,11.09,4.85,16.59c2.05,6.57,4.58,12.94,8,18.96c2.13,3.74,3.88,7.69,5.97,11.46
	c0.71,1.27,1.9,2.31,2.97,3.34c0.78,0.75,1.79,0.69,2.57-0.02c1.62-1.49,2.99-3.1,3.71-5.31c1.8-5.56,1.99-11.21,1.11-16.91
	c-0.88-5.69-1.88-11.36-2.87-17.04c-0.61-3.52-1.24-7.04-1.96-10.53c-0.42-2.02-1.17-3.97-1.55-5.99c-2-10.58-3.85-21.2-5.92-31.77
	c-1.63-8.35-3.58-16.65-5.22-25c-0.94-4.79-1.49-9.66-2.33-14.47c-1.47-8.33-3.01-16.64-4.56-24.95
	c-0.97-5.23-2.16-10.42-2.96-15.67c-0.96-6.31-1.56-12.67-2.41-19c-0.67-4.96-1.5-9.91-2.22-14.87c-0.9-6.25-1.72-12.51-2.66-18.76
	c-0.56-3.71-1.18-7.42-1.94-11.1c-1.43-6.94-0.53-13.48,2.78-19.77c1.31-2.49,2.13-5.23,4.8-6.76c0.37-0.21,0.5-1.09,0.5-1.66
	c-0.03-4.77,2.25-8.26,6.65-10.13c0.8-0.34,1.58-0.76,2.3-1.24c3.25-2.2,6.92-3.42,10.61-4.59c1.52-0.48,3.06-0.98,4.63-1.2
	c5.49-0.76,11.28,2.78,13.25,7.94c0.36,0.94,0.68,2,2.02,1.83c3.9-0.49,5.91,2.16,7.55,4.9c1.82,3.04,3.43,6.28,4.61,9.61
	c1.63,4.58,3.18,9.27,4.04,14.04c1.8,9.91,3.21,19.9,4.62,29.88c0.91,6.44,1.44,12.94,2.34,19.39c0.68,4.89,1.71,9.73,2.53,14.6
	c0.79,4.69,1.44,9.4,2.29,14.07c0.66,3.63,1.57,7.21,2.28,10.84c0.93,4.79,1.75,9.61,2.66,14.41c1.28,6.77,2.71,13.51,3.87,20.3
	c0.81,4.75,1.15,9.58,1.96,14.33c1.09,6.41,2.43,12.79,3.68,19.17c1.54,7.89,4.04,15.49,6.84,23c0.92,2.45,1.89,4.89,3,7.26
	c0.55,1.17,1.37,2.24,2.22,3.22c2.03,2.35,5.41,1.67,6.36-1.32c0.89-2.81,1.5-5.65,1.37-8.67c-0.19-4.25,0.14-8.52-0.1-12.76
	c-0.42-7.31-1.08-14.59-2.67-21.79c-0.96-4.33-1.27-8.79-1.87-13.2c-0.96-7.01-1.88-14.02-2.88-21.03
	c-1.1-7.69-2.19-15.39-3.41-23.07c-1.4-8.86-2.14-17.76-2.36-26.74c-0.12-4.74-1.1-9.45-1.56-14.19
	c-1.13-11.41-2.24-22.82-3.25-34.24c-0.54-6.12-1-12.25-1.2-18.39c-0.37-10.9-0.5-21.81-0.75-32.71c-0.08-3.51-0.35-7.02-0.28-10.52
	c0.11-5.51,0.65-11.01,0.6-16.52c-0.03-4.12,1.11-7.83,3.05-11.27c1.26-2.24,3-4.26,4.78-6.14c1.08-1.14,1.55-2.33,1.75-3.8
	c0.26-1.98,0.36-4.06,1.06-5.9c0.64-1.69,1.68-3.53,3.09-4.56c2.66-1.93,5.59-3.62,8.64-4.84c2.72-1.09,5.75-1.41,8.63-2.09
	c0.42-0.1,0.81-0.4,1.22-0.43c1.84-0.17,3.7-0.47,5.53-0.35c2.12,0.14,4.21,0.65,6.3,1.03c0.86,0.15,1.87,0.14,2.54,0.6
	c2.84,1.91,5.84,3.75,6.71,7.43c0.54,2.25,0.92,4.53,1.48,6.78c0.11,0.42,0.78,1.04,1.15,1.01c1.6-0.12,2.45,0.82,3.15,1.98
	c3.15,5.21,5.21,10.83,5.89,16.88c0.58,5.1,1.17,10.23,1.3,15.35c0.25,9.39-0.07,18.8,0.29,28.18c0.29,7.68,1.25,15.33,1.86,23
	c0.26,3.3,0.32,6.62,0.59,9.92c0.25,3.12,0.63,6.22,0.98,9.33c0.7,6.14,1.48,12.28,2.11,18.43c0.64,6.23,1.16,12.47,1.66,18.71
	c0.22,2.75,0.24,5.51,0.38,8.26c0.41,7.82,0.92,15.63,1.23,23.45c0.24,6.13,0.25,12.28,0.32,18.42c0.1,8.9,0,17.8,0.26,26.69
	c0.26,9.01,1.03,18.01,1.23,27.02c0.12,5.41,1.02,10.69,1.64,16.02c0.4,3.49,2.11,6.51,4.08,9.36c0.43,0.62,0.94,1.19,1.28,1.86
	c0.7,1.38,1.84,2.07,3.3,2.04c1.58-0.03,2.7-1,3.33-2.39c2.99-6.58,5.47-13.33,6.21-20.58c0.18-1.74-0.08-3.52,0.08-5.25
	c0.41-4.3,0.89-8.58,1.44-12.86c0.82-6.33,1.69-12.65,2.59-18.98c0.54-3.78,1.2-7.55,1.71-11.34c0.5-3.78,0.82-7.59,1.34-11.36
	c0.31-2.29,0.89-4.55,1.29-6.83c1.34-7.77,2.63-15.55,3.98-23.31c0.98-5.61,2.06-11.21,3.01-16.83c1.03-6.11,2.02-12.23,2.94-18.36
	c1.38-9.16,2.66-18.33,4.03-27.5c1.05-7,1.88-14.05,3.32-20.97c1.64-7.9,3.88-15.67,5.8-23.52c1.03-4.2,1.76-8.47,2.94-12.62
	c0.7-2.48,1.3-5.2,3.42-6.96c1.26-1.04,2.79-1.83,4.32-2.43c1.08-0.42,1.88-0.85,2.24-2c0.47-1.49,1.02-2.96,1.53-4.44
	c0.62-1.79,1.75-3.14,3.35-4.15c1.64-1.03,3.18-2.23,4.85-3.19c4.54-2.6,9.5-2.39,14.44-1.82c2.66,0.31,5.3,0.92,7.91,1.54
	c2.25,0.53,3.86,1.96,4.96,4.01c2.12,3.96,3.67,8.08,4.11,12.59c0.04,0.37,0.61,0.71,0.96,1.03c0.61,0.54,1.49,0.92,1.82,1.59
	c0.7,1.38,1.24,2.88,1.62,4.38c1.25,5,2.02,10.07,1.8,15.25c-0.24,5.5-0.21,11.03-0.8,16.49c-0.68,6.22-2.01,12.36-2.89,18.56
	c-0.9,6.38-1.57,12.78-2.35,19.18c-0.72,5.9-1.51,11.8-2.19,17.71c-0.37,3.17-0.45,6.37-0.88,9.52c-0.57,4.21-1.31,8.41-2.05,12.59
	c-0.93,5.24-1.91,10.47-2.9,15.7c-1,5.28-2.22,10.53-3.02,15.84c-0.79,5.26-1.09,10.58-1.75,15.86c-0.51,4.15-1.24,8.27-1.85,12.41
	c-0.77,5.2-1.51,10.4-2.28,15.59c-1.02,6.87-2.13,13.73-3.09,20.61c-0.7,4.96-1.06,9.97-1.87,14.91c-1.28,7.77-1.31,15.6-1.51,23.43
	c-0.12,4.93-0.45,9.89-0.18,14.8c0.29,5.17,1.1,10.32,1.84,15.45c0.59,4.08,1.26,8.17,2.18,12.19c1.27,5.54,2.75,11.03,4.27,16.51
	c1.11,3.98,2.22,7.97,3.71,11.81c1.67,4.3,3.54,8.56,5.76,12.6c1.33,2.42,3.43,4.44,5.3,6.53c1.1,1.23,4.63,1.68,5.81,0.67
	c0.89-0.77,1.43-1.97,2.08-3.01c1.22-1.96,2.24-4.08,3.65-5.89c4.81-6.14,9.79-12.13,14.63-18.25c2.33-2.94,4.71-5.88,6.67-9.07
	c1.66-2.7,2.76-5.74,4.1-8.63c1.75-3.8,3.19-7.78,5.3-11.36c1.93-3.26,2.15-6.69,2.64-10.23c0.55-3.94,1.55-7.81,2.39-11.71
	c0.39-1.82,0.89-3.62,1.34-5.42c1.55-6.23,2.65-12.62,6.37-18.08c0.28-0.41,0.47-0.88,0.71-1.32c1.19-2.12,2.4-4.22,3.56-6.35
	c1.16-2.14,2-4.53,3.46-6.44c4.09-5.36,8.22-10.73,12.75-15.71c2.74-3.02,6.06-5.63,9.48-7.88c4.32-2.85,9.07-5.06,13.52-7.72
	c1.89-1.13,3.49-2.76,5.26-4.1c1.29-0.98,2.57-2.02,3.99-2.78c2.25-1.21,4.63-2.16,6.92-3.3c4.09-2.04,8.6-2.2,12.88-1.89
	c5.41,0.39,10.56,2.17,13.45,7.53c0.53,0.98,1.22,1.88,1.78,2.85c2.1,3.59,1.8,7.43,0.98,11.26c-1.12,5.26-2.23,10.52-3.6,15.72
	c-1.54,5.86-3,11.75-6.06,17.11c-1.41,2.47-2.75,5.08-3.52,7.8c-0.73,2.54-0.67,5.31-0.94,7.98c-0.86,8.34-1.81,16.68-2.52,25.04
	c-0.39,4.61-0.28,9.26-0.57,13.88c-0.29,4.56-0.67,9.12-1.22,13.65c-1.13,9.29-4.17,18.04-7.87,26.56
	c-1.94,4.46-4.36,8.7-6.56,13.04c-1.47,2.9-2.82,5.86-4.41,8.69c-3.04,5.4-6.25,10.7-9.31,16.08c-3.34,5.87-6.64,11.76-9.89,17.68
	c-2.14,3.89-4.16,7.85-6.22,11.78c-2.63,5.03-5.19,10.1-7.88,15.1c-1.06,1.98-2.41,3.8-3.58,5.73c-1.04,1.71-2.11,3.41-3,5.19
	c-1.45,2.91-2.62,5.96-4.18,8.8c-1.95,3.56-4.02,7.08-6.32,10.42c-2.9,4.21-6.15,8.18-9.14,12.34c-1.42,1.97-2.46,4.22-3.88,6.19
	c-2.24,3.08-4.67,6.02-7.01,9.02c-2.53,3.25-5.05,6.5-7.59,9.74c-1.12,1.43-2.24,2.86-3.45,4.21c-3.47,3.86-6.81,7.86-10.52,11.48
	c-6.29,6.16-11.94,12.95-18.98,18.37c-4.4,3.39-8.37,7.35-12.64,10.93c-1.67,1.4-3.66,2.4-5.41,3.7c-1.5,1.12-2.85,2.43-4.28,3.65
	c-3.34,2.83-6.68,5.66-10.02,8.49c-2.33,1.97-4.64,3.98-7.02,5.89c-2.34,1.88-4.76,3.66-7.15,5.47c-3.33,2.51-6.6,5.11-10.05,7.46
	c-1.29,0.88-2.96,1.43-4.52,1.62c-8.38,1.02-16.78,1.98-25.19,2.76c-8.16,0.75-16.35,1.25-24.52,1.86
	C422.62,619.2,422.61,619.09,422.6,618.98z M418.35,64.96c0.11,0,0.23-0.01,0.34-0.01c-0.27-8.01-0.32-16.03-0.87-24.02
	c-0.43-6.25-1.61-12.42-4.56-18.08c-0.46-0.89-1.14-1.66-1.72-2.48c-0.14,1.07-0.44,2.16-0.38,3.22c0.18,3.25,0.58,6.48,0.75,9.73
	c0.33,6.06-1.07,11.96-1.92,17.9c-1.11,7.72-5.87,12.29-12.74,15.11c-0.62,0.26-1.33,0.31-2.01,0.42c-1.05,0.17-2.21,0.06-3.14,0.48
	c-2.58,1.17-5.24,0.96-7.93,0.84c-4.65-0.2-8.09-2.58-10.6-6.23c-2.21-3.23-3.43-6.94-4.14-10.8c-1.03-5.6-2.16-11.18-3.15-16.78
	c-0.45-2.52-0.64-5.09-1-7.63c-0.06-0.43-0.42-0.81-0.64-1.22c-0.35,0.24-0.76,0.42-1.03,0.72c-0.33,0.37-0.58,0.82-0.78,1.27
	c-0.81,1.83-1.61,3.67-2.36,5.53c-1.73,4.28-1.76,8.85-1.87,13.32c-0.19,7.57,0.09,15.14,0.22,22.72c0.1,5.83,0.29,11.65,0.46,17.48
	c0.04,1.31,0.21,2.62,0.22,3.94c0.02,3.32-0.16,6.64,0,9.95c0.33,6.81,0.81,13.62,1.26,20.42c0.21,3.06,0.45,6.12,0.77,9.17
	c0.8,7.54,1.67,15.07,2.49,22.6c0.56,5.23,1.18,10.46,1.59,15.7c0.41,5.17,0.34,10.4,0.93,15.55c0.87,7.65,2.12,15.25,3.22,22.87
	c0.4,2.79,0.83,5.57,1.28,8.35c0.78,4.82,1.69,9.62,2.34,14.45c0.57,4.22,0.7,8.49,1.31,12.7c0.7,4.88,1.97,9.68,2.54,14.57
	c0.75,6.46,1.14,12.96,1.5,19.46c0.17,2.99-0.27,6.01-0.12,9.01c0.17,3.28-0.48,6.35-1.66,9.34c-0.88,2.23-2.27,4.21-4.67,4.78
	c-2.96,0.71-5.47-0.23-7.41-2.79c-3.33-4.38-5.17-9.48-6.77-14.58c-2.21-7.04-4.04-14.21-5.72-21.4c-1.37-5.84-2.36-11.78-3.37-17.7
	c-0.9-5.31-1.48-10.68-2.42-15.98c-1.26-7.09-2.74-14.14-4.12-21.21c-1.03-5.29-2.09-10.57-3.06-15.86
	c-0.92-5.05-1.78-10.11-2.61-15.18c-1.73-10.5-3.5-21-5.09-31.53c-0.78-5.14-1.07-10.35-1.81-15.49
	c-1.07-7.43-2.27-14.84-3.58-22.23c-1.35-7.62-3.66-14.96-7.46-21.75c-0.78-1.39-1.95-2.59-3.08-3.74
	c-0.34-0.35-1.14-0.27-1.73-0.38c-0.1,0.53-0.34,1.07-0.27,1.57c0.31,2.11,0.75,4.2,1.07,6.3c0.91,5.87,1.94,11.72,2.6,17.62
	c0.35,3.15-0.08,6.38,0.07,9.57c0.12,2.75-0.35,5.31-1.18,7.92c-1.96,6.18-6.2,9.88-12.29,11.48c-2.33,0.61-4.81,0.67-7.22,0.91
	c-0.52,0.05-1.11-0.18-1.62-0.4c-2.62-1.12-4.57-2.99-6.11-5.36c-3.81-5.87-5.71-12.52-7.75-19.08c-2.08-6.69-3.83-13.49-5.75-20.23
	c-0.18-0.62-0.6-1.17-0.9-1.75c-0.55,0.53-1.23,0.98-1.62,1.62c-0.58,0.96-0.85,2.1-1.43,3.06c-3.55,5.81-4.26,12.03-2.94,18.62
	c0.96,4.78,1.82,9.58,2.56,14.39c0.68,4.38,1.09,8.8,1.72,13.19c1.17,8.12,2.44,16.23,3.6,24.35c0.48,3.35,0.67,6.74,1.23,10.07
	c1.12,6.66,2.4,13.29,3.6,19.94c0.8,4.43,1.57,8.86,2.4,13.29c1.01,5.41,2.08,10.8,3.11,16.2c0.78,4.12,1.45,8.26,2.3,12.36
	c1.06,5.15,2.39,10.25,3.36,15.41c1.34,7.14,2.4,14.33,3.67,21.48c0.71,4,1.6,7.97,2.42,11.96c0.4,1.95,0.83,3.89,1.27,5.83
	c0.17,0.73,0.44,1.44,0.58,2.17c0.57,3.01,1.1,6.02,1.67,9.03c0.9,4.72,2.08,9.41,2.69,14.17c0.7,5.51,1.49,11.08,0.84,16.66
	c-0.62,5.38-1.81,10.53-6.83,13.8c-1.72,1.12-3.66,1.44-5.2,0.11c-1.64-1.41-3.26-3-4.38-4.82c-2.17-3.51-3.94-7.27-5.94-10.89
	c-3.81-6.9-6.7-14.18-8.97-21.71c-2.04-6.78-4.02-13.58-5.95-20.39c-2.11-7.47-4.01-15-6.22-22.44
	c-3.54-11.95-7.18-23.87-10.91-35.76c-1.98-6.31-4.24-12.53-6.35-18.79c-0.67-2.01-1.18-4.08-1.9-6.07c-0.91-2.53-1.91-5.03-3-7.48
	c-0.22-0.49-1.01-0.73-1.54-1.08c-0.03,0.56-0.19,1.15-0.05,1.66c1.01,3.74,2.13,7.45,3.13,11.2c0.98,3.69,1.12,7.23-1.36,10.59
	c-0.91,1.23-1.85,1.78-3.21,2.25c-3.27,1.13-6.56,2.3-9.63,3.86c-2.29,1.16-5.49,1.63-7.19,0.04c-1.4-1.31-2.82-2.77-3.65-4.46
	c-1.77-3.58-3.15-7.36-4.74-11.04c-0.2-0.47-0.65-0.84-0.99-1.26c-0.23,0.47-0.59,0.91-0.68,1.41c-0.91,4.96-0.08,9.88,0.55,14.77
	c0.76,5.83,1.9,11.61,2.79,17.43c0.99,6.43,1.86,12.87,2.85,19.3c0.76,4.94,1.62,9.86,2.42,14.8c1.31,8.03,2.45,16.09,3.95,24.09
	c1.92,10.21,4.08,20.38,6.23,30.55c0.85,4.04,1.83,8.07,2.98,12.03c1.78,6.13,3.73,12.21,5.63,18.31
	c2.25,7.23,4.29,14.54,6.85,21.66c5.34,14.88,9.52,30.09,13.18,45.45c1.64,6.88,3.07,13.81,4.65,20.7
	c1.63,7.14,3.35,14.26,4.99,21.4c1.21,5.25,2.28,10.53,3.59,15.75c1.57,6.26,3.04,12.56,5.05,18.68c2.54,7.73,5.41,15.36,8.45,22.9
	c2.08,5.15,4.44,10.24,7.16,15.08c3.93,6.98,8.77,13.35,13.76,19.65c5.3,6.7,11.16,12.85,16.99,19.03
	c4.28,4.55,8.95,8.76,13.67,12.86c6.27,5.44,12.99,10.35,20.75,13.4c4.99,1.95,10.25,3.51,15.53,4.32
	c8.52,1.31,17.13,2.21,25.73,2.64c8.93,0.45,17.9,0.04,26.86,0.19c13.61,0.23,26.95-2.22,40.34-4.09c3.47-0.48,6.91-1.47,10.25-2.56
	c2.03-0.67,4-1.79,5.73-3.06c2.39-1.75,4.52-3.86,6.8-5.76c3.61-3,7.26-5.94,10.89-8.91c3.97-3.25,7.88-6.55,11.91-9.72
	c2.56-2.01,5.4-3.65,7.9-5.71c4.65-3.81,9.18-7.77,13.69-11.74c1.87-1.64,3.57-3.47,5.31-5.26c2.36-2.43,4.62-4.95,7.01-7.35
	c2.81-2.82,5.81-5.46,8.53-8.36c2.51-2.68,4.78-5.59,7.14-8.42c1.88-2.25,3.73-4.52,5.58-6.79c1.82-2.24,3.6-4.5,5.42-6.73
	c1.46-1.78,3.12-3.43,4.44-5.31c5.65-8.04,11.24-16.11,16.77-24.23c1.51-2.22,2.79-4.6,4.06-6.97c2.47-4.57,4.76-9.24,7.3-13.77
	c3.25-5.78,6.79-11.4,9.99-17.21c3.35-6.08,6.35-12.36,9.66-18.47c3.61-6.66,7.48-13.19,11.1-19.84
	c3.65-6.71,7.13-13.51,10.69-20.27c1.41-2.66,2.94-5.25,4.24-7.96c0.88-1.84,1.49-3.82,2.18-5.75c0.27-0.75-0.08-1.17-0.87-1.31
	c-5.44-0.9-9.29-4.72-13.66-7.56c-1.92-1.25-3.45-3.16-5.43-4.28c-2.62-1.48-2.46-6.37-0.86-7.88c1.36-1.28,2.86-2.42,4.36-3.54
	c0.7-0.52,1.53-0.66,2.13,0.25c0.58,0.88,0.15,1.49-0.56,2.08c-0.92,0.75-1.84,1.52-2.65,2.39c-1.37,1.48-1.24,2.89,0.28,4.23
	c1.08,0.95,2.12,1.96,3.28,2.81c2.36,1.75,4.83,3.34,7.16,5.13c2.31,1.77,4.94,2.61,7.74,3.04c0.43,0.07,1.18-0.3,1.37-0.68
	c0.54-1.05,0.92-2.19,1.26-3.33c0.27-0.89,0.08-1.29-1.02-0.88c-0.64,0.24-1.5,0.2-2.16-0.02c-1.55-0.49-3.01-1.24-4.56-1.73
	c-2.28-0.73-2.6-2.71-3.03-4.58c-0.1-0.41,0.3-1.15,0.68-1.42c1.38-0.93,2.93-1.5,4.62-1.04c2.1,0.57,4.17,1.3,6.28,1.85
	c0.48,0.13,1.33-0.03,1.59-0.38c0.94-1.25,0.22-2.85-1.32-3.29c-3.5-1-7.08-0.89-10.64-0.7c-0.82,0.04-1.58,0.86-2.4,1.24
	c-0.86,0.39-1.75,0.81-2.67,0.95c-0.35,0.05-0.99-0.54-1.17-0.97c-0.13-0.32,0.16-1.08,0.48-1.27c2.24-1.31,4.29-3.22,7.12-3.05
	c3.36,0.2,6.71,0.59,10.07,0.92c0.89,0.09,1.8,0.4,1.98-0.96c0.17-1.28-0.21-2.06-1.63-2.16c-1.25-0.09-2.5-0.22-3.73-0.42
	c-3.57-0.58-7.14-1.23-10.71-1.8c-0.6-0.1-1.25,0.03-1.86,0.14c-1.48,0.29-2.93,0.8-4.41,0.92c-2.76,0.21-4.76,1.68-6.65,3.5
	c-0.57,0.55-1.29,0.99-2.02,1.28c-0.35,0.14-1.09-0.08-1.3-0.38c-0.21-0.29-0.15-1.07,0.11-1.34c1.27-1.37,2.51-2.85,4.03-3.89
	c1.18-0.81,2.74-1.11,4.16-1.5c2.04-0.57,4.14-1.52,6.18-1.44c4.54,0.18,9.05,0.91,13.58,1.38c1.11,0.12,2.23,0.1,3.35,0.13
	c1.15,0.03,1.73-0.59,1.82-1.7c0.17-2,0.39-4,0.46-6c0.12-3.63,0-7.28,0.25-10.9c0.3-4.37,0.91-8.72,1.35-13.08
	c0.52-5.11,0.97-10.22,1.52-15.32c0.34-3.17,0.82-6.33,1.17-9.49c0.04-0.41-0.27-1.14-0.59-1.26c-1.73-0.63-3.49-1.41-5.29-1.6
	c-4.57-0.48-9.1-1.88-13.78-0.7c-0.86,0.22-1.86-0.1-2.8-0.16c-2.01-0.12-3.1-1.24-3.77-3.11c-1.71-4.83-2.28-9.89-2.71-14.91
	c-0.36-4.15-0.01-8.37,0.21-12.54c0.15-2.87,0.65-5.72,0.94-8.59c0.07-0.69-0.11-1.41-0.18-2.12c-0.59,0.28-1.19,0.55-1.78,0.85
	c-0.33,0.17-0.63,0.4-0.96,0.59c-4.68,2.65-9.42,5.21-13.38,8.96c-1.95,1.85-4.35,3.28-6.09,5.29c-3.52,4.06-6.74,8.39-10.06,12.62
	c-0.31,0.39-0.55,0.83-0.8,1.27c-2.74,4.85-5.32,9.78-8.25,14.51c-1.95,3.15-3.01,6.58-4.09,10.03c-0.62,1.96-1,4-1.47,6
	c-0.44,1.88-0.9,3.75-1.28,5.64c-0.8,3.91-1.61,7.82-2.29,11.75c-0.39,2.21-0.15,4.6-0.88,6.67c-1.04,2.98-2.44,5.93-4.18,8.55
	c-1.81,2.72-2.55,5.81-3.92,8.66c-0.94,1.95-1.52,4.11-2.66,5.92c-1.83,2.89-3.94,5.62-6.05,8.32c-4.35,5.57-8.92,10.97-13.12,16.65
	c-3.12,4.21-5.79,8.75-8.71,13.12c-0.35,0.52-0.95,1.01-1.53,1.2c-1.19,0.38-2.43,0.6-3.67,0.79c-1.68,0.26-3.34,0.01-4.6-1.15
	c-3.67-3.35-7.08-6.93-9.27-11.48c-4.12-8.56-7.12-17.54-9.43-26.72c-2.47-9.84-4.41-19.78-5.86-29.84
	c-1.4-9.68-1.53-19.35-0.99-29.05c0.34-6.24,0.95-12.47,1.57-18.69c0.49-4.92,1.13-9.83,1.79-14.74c0.58-4.28,1.3-8.54,1.95-12.81
	c1.52-9.96,3.03-19.92,4.54-29.88c0.24-1.55,0.6-3.08,0.73-4.63c0.3-3.48,0.27-7.01,0.77-10.46c1.18-8.18,2.53-16.34,3.91-24.49
	c0.92-5.44,1.99-10.84,2.99-16.27c0.88-4.78,2.23-9.5,1.84-14.45c-0.07-0.92,0.12-1.88,0.26-2.8c1.26-7.96,2.66-15.87,2.85-24.01
	c0.15-5.96,1.61-11.9,2.55-17.83c0.67-4.2,1.61-8.36,2.15-12.58c0.6-4.72,0.84-9.48,1.32-14.21c0.66-6.61-0.12-13.13-1.01-19.65
	c-0.04-0.32-0.37-0.61-0.56-0.91c-0.14,0.31-0.37,0.61-0.42,0.94c-0.63,4.45-1.11,8.93-1.92,13.36c-0.44,2.43-1.63,4.72-2.13,7.15
	c-0.58,2.86-1.45,5.53-2.97,8.04c-1.39,2.3-2.5,4.8-4.92,6.23c-1.33,0.78-2.71,1.79-4.16,1.97c-3.39,0.43-6.85,0.3-10.26,0.61
	c-4.95,0.44-9.21-1.5-13.36-3.73c-2.35-1.27-4.02-3.3-4.36-6.04c-0.4-3.23-0.79-6.49-0.77-9.73c0.05-7.84,0.75-15.64,1.74-23.42
	c0.08-0.67-0.17-1.39-0.27-2.08c-0.83,0.32-2.06,0.41-2.4,1.01c-1.03,1.83-1.94,3.79-2.49,5.81c-1.06,3.86-1.77,7.81-2.74,11.69
	c-1.6,6.37-3.3,12.72-4.95,19.08c-0.42,1.63-0.92,3.26-1.16,4.92c-0.55,3.77-0.88,7.58-1.46,11.35c-0.81,5.26-1.81,10.49-2.63,15.74
	c-1.16,7.49-2.21,14.99-3.35,22.48c-0.77,5.07-1.59,10.13-2.45,15.18c-0.85,4.99-1.75,9.98-2.67,14.96
	c-0.24,1.28-0.98,2.55-0.94,3.8c0.12,3.56-0.66,6.93-1.46,10.36c-0.83,3.53-1.23,7.15-1.84,10.73c-0.45,2.65-1,5.28-1.35,7.94
	c-0.46,3.41-0.7,6.85-1.17,10.26c-0.68,4.96-1.5,9.89-2.21,14.85c-0.38,2.66-0.62,5.34-0.97,8c-0.77,5.77-1.64,11.52-2.32,17.3
	c-0.32,2.72-0.2,5.49-0.45,8.23c-0.55,6.09-1.98,11.97-4.47,17.57c-0.84,1.89-1.45,3.9-2.44,5.7c-3.39,6.13-10,4.79-12.47,0.25
	c-0.63-1.15-1.22-2.38-2.07-3.35c-2.55-2.88-3.48-6.32-3.86-10c-0.39-3.79-0.84-7.58-1.15-11.37c-0.24-2.87-0.32-5.75-0.46-8.63
	c-0.46-9.82-1-19.65-1.35-29.48c-0.19-5.19,0-10.39-0.05-15.59c-0.04-4.13-0.16-8.27-0.27-12.4c-0.19-7.2-0.38-14.41-0.58-21.61
	c-0.06-2.19-0.1-4.38-0.24-6.57c-0.39-5.94-0.79-11.88-1.26-17.81c-0.51-6.37-1.06-12.74-1.69-19.11
	c-0.64-6.54-1.41-13.08-2.09-19.62c-0.19-1.81-0.25-3.63-0.43-5.44c-0.81-8.42-1.82-16.82-2.42-25.25
	C418.56,78.5,418.56,71.72,418.35,64.96z M408.9,35.17c-0.09-0.02-0.17-0.04-0.26-0.06c-0.2-2.05-0.41-4.11-0.58-6.16
	c-0.39-4.8-0.59-9.63-1.2-14.41c-0.34-2.68-0.83-5.47-2.95-7.55c-4.13-4.06-9.46-3.87-14.58-3.85c-2.21,0.01-4.41,1.24-6.62,1.91
	c-0.89,0.27-1.79,0.67-2.7,0.71c-2.11,0.1-3.87,0.86-5.4,2.29c-0.62,0.58-1.31,1.25-2.09,1.49c-1.5,0.46-2.41,1.43-2.73,2.83
	c-0.59,2.54-1.18,5.11-1.43,7.7c-0.18,1.9,0.18,3.86,0.31,5.79c0.38,5.75,1.02,11.46,2.55,17.04c0.21,0.78,0.34,1.59,0.42,2.4
	c0.45,4.49,1.75,8.72,3.97,12.63c2.94,5.19,7.81,7.38,13.67,6.22c2.45-0.49,4.88-1.13,7.26-1.89c4.69-1.51,8.33-4.39,9.41-9.33
	C407.21,47.07,407.93,41.09,408.9,35.17z M497.4,75.89c0.13,0.01,0.26,0.03,0.39,0.04c0,2.94-0.04,5.89,0.01,8.83
	c0.06,3.76,1.32,6.54,5.11,8.33c5.46,2.58,11.05,2.83,16.83,2.26c2.4-0.24,4.76-0.81,6.31-2.88c0.97-1.3,1.94-2.66,2.58-4.13
	c4.66-10.65,7.16-21.69,6.31-33.42c-0.36-4.89-1.34-9.53-3.9-13.73c-0.52-0.85-1.43-1.8-2.33-2.02c-3.51-0.85-7.07-1.58-10.65-2.05
	c-1.88-0.25-3.9-0.1-5.77,0.3c-3.03,0.66-5.51,2.37-7.94,4.38c-1.98,1.64-2.89,3.49-3.34,5.8c-0.45,2.27-1,4.53-1.27,6.82
	C498.89,61.57,498.17,68.73,497.4,75.89z M314.33,110.41c0.03,0,0.05,0,0.08,0c0-0.94,0.02-1.88,0-2.82
	c-0.27-9.18-1.94-18.16-4-27.07c-0.63-2.71-1.33-5.74-3.01-7.79c-2.53-3.08-6.3-4.43-10.47-3.48c-1.89,0.43-3.76,0.96-5.58,1.62
	c-1.63,0.59-3.24,1.31-4.76,2.16c-2.01,1.13-3.87,2.53-5.89,3.65c-3.41,1.89-4.49,4.21-3.52,7.94c0.19,0.73,0.3,1.47,0.52,2.19
	c2.46,8.28,5.02,16.53,7.37,24.84c1.39,4.91,3.15,9.62,5.9,13.94c2.21,3.46,4.6,6.59,9.49,5.08c0.29-0.09,0.63-0.01,0.94-0.05
	c3.26-0.37,6.41-1.46,8.57-3.81c2.74-2.98,4.16-6.81,4.36-10.95C314.41,114.05,314.33,112.23,314.33,110.41z M639.23,265.23
	c0,8.37,1.13,14.14,2.37,19.88c0.49,2.27,1.88,2.95,4.21,2.75c1.56-0.13,3.15-0.4,4.68-0.21c4.52,0.56,9.02,1.29,13.52,2.02
	c1.47,0.24,3.52-0.4,4.06-1.65c1.49-3.44,3.15-6.83,4.24-10.39c1.92-6.28,3.53-12.65,5.13-19.02c0.84-3.34,1.42-6.79,0.74-10.23
	c-1.43-7.2-8.6-10.68-14.93-10.79c-7.15-0.13-13.23,3.31-18.92,7.3c-1.7,1.19-2.85,2.86-3.12,5.12
	C640.53,255.89,639.69,261.76,639.23,265.23z M239.46,213.32c-0.12-0.74-0.17-1.49-0.37-2.21c-1.21-4.52-2.36-9.07-3.73-13.54
	c-1.01-3.28-2.27-6.49-3.51-9.7c-0.87-2.25-1.65-2.63-3.91-1.76c-1.79,0.69-3.54,1.54-5.17,2.55c-1.91,1.18-3.62,2.68-5.51,3.89
	c-2.37,1.52-3.85,3.63-4.97,6.17c-0.7,1.59-0.65,3-0.08,4.52c1.69,4.51,3.23,9.09,5.12,13.51c0.86,2.02,2.23,3.89,3.7,5.54
	c0.71,0.8,2.32,1.47,3.29,1.24c2.65-0.63,5.18-1.77,7.75-2.73c0.87-0.32,1.68-0.81,2.57-1.04
	C237.73,218.95,239.49,216.62,239.46,213.32z M649.35,365.58c-0.19,0.08-0.61,0.26-1.03,0.44c0.25,0.4,0.45,0.84,0.76,1.17
	c0.25,0.26,0.63,0.42,0.98,0.54c1.58,0.52,3.17,1.02,4.77,1.5c0.42,0.12,0.87,0.14,1.31,0.21c-0.15-0.53-0.14-1.22-0.47-1.57
	C654.03,366.17,651.81,365.93,649.35,365.58z M538.14,58.84c0.44,0.28,0.56,0.38,0.71,0.43c0.02,0.01,0.19-0.2,0.17-0.27
	c-0.04-0.14-0.15-0.34-0.26-0.37C538.62,58.6,538.45,58.73,538.14,58.84z"/>
<path fill-rule="evenodd" fill="none" d="M408.9,35.17c-0.96,5.93-1.69,11.9-2.97,17.76c-1.08,4.94-4.72,7.82-9.41,9.33
	c-2.38,0.76-4.81,1.41-7.26,1.89c-5.86,1.16-10.73-1.04-13.67-6.22c-2.21-3.91-3.52-8.15-3.97-12.63c-0.08-0.81-0.2-1.62-0.42-2.4
	c-1.53-5.58-2.17-11.29-2.55-17.04c-0.13-1.93-0.49-3.89-0.31-5.79c0.25-2.59,0.84-5.16,1.43-7.7c0.32-1.4,1.23-2.37,2.73-2.83
	c0.78-0.24,1.47-0.9,2.09-1.49c1.53-1.43,3.28-2.19,5.4-2.29c0.91-0.04,1.8-0.44,2.7-0.71c2.21-0.66,4.41-1.9,6.62-1.91
	c5.13-0.01,10.46-0.21,14.58,3.85c2.12,2.09,2.61,4.87,2.95,7.55c0.61,4.78,0.81,9.6,1.2,14.41c0.17,2.06,0.38,4.11,0.58,6.16
	C408.72,35.13,408.81,35.15,408.9,35.17z"/>
<path fill-rule="evenodd" fill="none" d="M497.4,75.89c0.77-7.16,1.49-14.32,2.32-21.47c0.27-2.29,0.82-4.55,1.27-6.82
	c0.46-2.3,1.37-4.16,3.34-5.8c2.43-2.01,4.9-3.72,7.94-4.38c1.86-0.4,3.88-0.55,5.77-0.3c3.58,0.47,7.14,1.2,10.65,2.05
	c0.9,0.22,1.81,1.17,2.33,2.02c2.57,4.2,3.55,8.84,3.9,13.73c0.86,11.72-1.65,22.77-6.31,33.42c-0.64,1.47-1.61,2.83-2.58,4.13
	c-1.55,2.08-3.91,2.65-6.31,2.88c-5.77,0.57-11.36,0.32-16.83-2.26c-3.79-1.79-5.04-4.57-5.11-8.33c-0.05-2.94-0.01-5.89-0.01-8.83
	C497.66,75.91,497.53,75.9,497.4,75.89z"/>
<path fill-rule="evenodd" fill="none" d="M314.33,110.41c0,1.82,0.07,3.64-0.01,5.45c-0.2,4.14-1.62,7.97-4.36,10.95
	c-2.15,2.35-5.31,3.44-8.57,3.81c-0.31,0.03-0.65-0.04-0.94,0.05c-4.88,1.51-7.28-1.63-9.49-5.08c-2.75-4.31-4.51-9.03-5.9-13.94
	c-2.36-8.31-4.91-16.56-7.37-24.84c-0.21-0.72-0.33-1.47-0.52-2.19c-0.97-3.73,0.11-6.06,3.52-7.94c2.02-1.12,3.88-2.52,5.89-3.65
	c1.52-0.85,3.12-1.57,4.76-2.16c1.82-0.66,3.69-1.19,5.58-1.62c4.17-0.95,7.94,0.4,10.47,3.48c1.68,2.05,2.39,5.08,3.01,7.79
	c2.06,8.91,3.73,17.89,4,27.07c0.03,0.94,0,1.88,0,2.82C314.39,110.41,314.36,110.41,314.33,110.41z"/>
<path fill-rule="evenodd" fill="none" d="M639.23,265.23c0.46-3.48,1.3-9.35,1.98-15.23c0.26-2.26,1.42-3.93,3.12-5.12
	c5.69-3.99,11.76-7.43,18.92-7.3c6.33,0.11,13.5,3.59,14.93,10.79c0.68,3.44,0.1,6.89-0.74,10.23c-1.6,6.37-3.21,12.75-5.13,19.02
	c-1.09,3.56-2.75,6.96-4.24,10.39c-0.54,1.25-2.59,1.89-4.06,1.65c-4.5-0.73-9-1.46-13.52-2.02c-1.53-0.19-3.12,0.08-4.68,0.21
	c-2.34,0.2-3.73-0.48-4.21-2.75C640.37,279.37,639.23,273.6,639.23,265.23z"/>
<path fill-rule="evenodd" fill="none" d="M239.46,213.32c0.03,3.3-1.72,5.63-4.82,6.44c-0.89,0.23-1.7,0.72-2.57,1.04
	c-2.57,0.96-5.1,2.1-7.75,2.73c-0.97,0.23-2.58-0.44-3.29-1.24c-1.47-1.65-2.84-3.52-3.7-5.54c-1.89-4.43-3.43-9-5.12-13.51
	c-0.57-1.53-0.62-2.94,0.08-4.52c1.12-2.54,2.6-4.65,4.97-6.17c1.89-1.21,3.6-2.72,5.51-3.89c1.63-1,3.38-1.86,5.17-2.55
	c2.26-0.87,3.03-0.49,3.91,1.76c1.24,3.21,2.51,6.41,3.51,9.7c1.37,4.48,2.51,9.02,3.73,13.54
	C239.28,211.83,239.34,212.59,239.46,213.32z"/>
<path fill-rule="evenodd" fill="none" d="M649.35,365.58c2.46,0.36,4.68,0.6,6.31,2.28c0.34,0.35,0.33,1.04,0.47,1.57
	c-0.44-0.07-0.89-0.09-1.31-0.21c-1.6-0.48-3.19-0.98-4.77-1.5c-0.35-0.12-0.73-0.28-0.98-0.54c-0.32-0.33-0.52-0.78-0.76-1.17
	C648.73,365.83,649.15,365.66,649.35,365.58z"/>
<path fill-rule="evenodd" fill="none" d="M538.14,58.84c0.31-0.11,0.48-0.24,0.61-0.21c0.12,0.03,0.22,0.23,0.26,0.37
	c0.02,0.07-0.14,0.28-0.17,0.27C538.71,59.22,538.58,59.12,538.14,58.84z"/>
<path fill-rule="evenodd" d="M500.8,215.4c-4.49-0.69-8.56-2.11-12.18-4.4c-1.3-0.83-2.82-1.47-4.18-2.24
	c-2.02-1.15-4.09-2.26-5.98-3.52c-2.38-1.59-2.72-5.42-1.03-7.11c4.3-4.27,10.59-5.52,18.09-5.03c0.46,0.03,0.99,0.04,1.36,0.22
	c0.51,0.24,0.9,0.63,1.33,0.96c-0.37,0.25-0.67,0.65-1.12,0.73c-0.98,0.16-2.03,0.23-3.07,0.18c-4.13-0.21-7.51,0.99-10.73,2.27
	c-3.14,1.24-3.87,3.43-2.31,5.55c0.46,0.62,1.29,1.17,2.09,1.62c1.82,1.01,3.72,1.94,5.6,2.88c0.7,0.35,1.21,0.37,0.87-0.39
	c-0.32-0.73-0.32-1.36,0.72-1.63c1.17-0.3,1.88,0.25,2.71,0.9c1.26,0.99,2.63,1.96,4.14,2.72c2.31,1.16,6.5,0.46,7.67-1.17
	c0.48-0.67,0.97-1.37,1.23-2.11c0.71-2.04,0.23-2.77-2.19-4.27c-1.16-0.72-2.22-1.54-3.14-2.41c-0.34-0.33-0.14-0.93-0.19-1.4
	c0.61,0.05,1.4-0.07,1.79,0.17c2.12,1.3,4.17,2.66,6.16,4.07c0.5,0.35,0.84,0.96,0.92,1.45c0.57,3.26-1.13,7.07-6.03,8.19
	c-0.81,0.19-1.78,0.11-2.66,0.2c-0.43,0.05-0.83,0.2-1.24,0.3c0.36,0.19,0.7,0.5,1.07,0.55c2.29,0.29,4.59,0.52,6.88,0.76
	c0.33,0.03,0.71-0.08,0.97,0.02c0.65,0.27,1.24,0.63,1.86,0.95c-0.38,0.41-0.62,1.08-1.17,1.19c-1.99,0.41-4.05,0.8-6.31,0.17
	C502.13,215.6,501.46,215.52,500.8,215.4z"/>
<path fill-rule="evenodd" d="M225.12,258.22c-0.96-4.67,2.48-6.59,5.5-8.74c0.76-0.54,1.64-0.93,2.51-1.26
	c0.95-0.37,1.94-0.32,2.45,0.71c0.56,1.13,1.1,0.58,1.5,0.02c1.57-2.16,3.88-2.04,6.13-2.04c0.36,0,1.04,0.55,1.02,0.81
	c-0.03,0.54-0.29,1.3-0.71,1.55c-0.9,0.53-1.94,1-2.96,1.11c-2.77,0.3-3.87,2.54-5.35,4.35c-0.09,0.11,0.28,0.85,0.51,0.89
	c0.91,0.15,1.91,0.38,2.75,0.14c1.97-0.55,3.96-1.09,5.3-2.95c0.31-0.43,1.71-0.54,2.25-0.21c0.85,0.51,0.72,1.44-0.08,2.21
	c-2.38,2.31-5.27,3.64-8.48,4.13c-2,0.31-3.83-0.55-5.38-1.82c-0.74-0.6-0.67-1.29-0.05-2.12c0.94-1.24,1.68-2.63,2.47-3.97
	c0.03-0.05-0.38-0.49-0.47-0.45c-0.76,0.29-1.51,0.59-2.21,0.99c-0.54,0.31-0.94,0.85-1.48,1.14c-2.97,1.59-2.92,4.25-2.44,6.99
	c0.32,1.82,2.12,2.9,4.19,2.61c2.65-0.38,5.29-0.87,7.94-1.24c0.48-0.07,1.26,0.07,1.46,0.38c0.22,0.35,0.08,1.12-0.18,1.53
	c-0.94,1.46-2.53,1.38-4.02,1.53c-1.29,0.14-2.61,0.21-3.85,0.57c-4.23,1.21-8.22-1.71-8.27-6.13
	C225.16,258.72,225.13,258.47,225.12,258.22z"/>
<path fill-rule="evenodd" d="M514.1,133.53c-3.77-0.57-7.59-0.92-11.28-1.79c-1.95-0.46-3.64-1.87-5.48-2.81
	c-4.66-2.36-7.25-5.99-8.78-10.25c-0.65-1.81-0.27-3.41,1.27-4.85c2.13-1.99,4.57-3.41,7.75-3.87c0.3-0.04,0.64-0.17,0.91-0.1
	c0.84,0.21,2.21,0.36,2.37,0.78c0.43,1.09-0.86,1.41-1.79,1.52c-2.74,0.32-4.88,1.44-6.38,3.32c-0.54,0.67-1.03,1.74-0.78,2.44
	c0.96,2.64,2.41,5.1,5.09,6.94c3.39,2.31,6.89,4.19,11.29,4.71c2.57,0.31,5.06,1.33,7.58,2.06c0.93,0.27,1.94,0.67,1.6,1.68
	c-0.31,0.93-1.32,0.96-2.32,0.77c-0.37-0.07-0.74-0.15-1.11-0.22C514.06,133.75,514.08,133.64,514.1,133.53z"/>
<path fill-rule="evenodd" d="M401.7,210.85c3.05,0.08,5.77-0.64,8.31-1.88c1.89-0.93,4.02-1.58,5.24-3.16
	c2.87-3.69,3.06-6.65-1.23-9.75c-1.4-1.02-3.74-1.35-5.71-1.87c-1.3-0.34-2.75-0.38-4.06-0.71c-0.56-0.14-0.93-0.68-1.38-1.03
	c0.57-0.27,1.2-0.82,1.69-0.77c2.51,0.28,5,0.65,7.46,1.11c3.9,0.72,6.08,2.89,7.46,5.49c0.56,1.05,0.67,2.33,0.55,3.49
	c-0.44,4.49-3.59,7.59-9.19,9.29c-2.27,0.69-4.54,1.52-6.9,1.9c-3.21,0.52-6.5,0.71-9.77,0.93c-0.58,0.04-1.65-0.42-1.74-0.77
	c-0.2-0.75,0.76-0.83,1.6-0.95C396.6,211.76,399.15,211.29,401.7,210.85z"/>
<path fill-rule="evenodd" d="M645.4,386.01c-1.08-0.38-2.3-0.69-3.42-1.22c-2.08-1-4.11-2.11-6.13-3.23c-1.8-1-3.58-2.04-5.33-3.14
	c-5.43-3.42-9.82-7.88-13.22-13.32c-0.1-0.16-0.16-0.35-0.28-0.49c-2.48-2.64-1.58-5.42-0.29-8.17c0.48-1.02,1.09-1.97,1.71-2.91
	c0.61-0.93,1.54-1.15,2.45-0.57c1.01,0.65,0.77,1.54,0.21,2.46c-0.71,1.17-1.41,2.36-1.94,3.61c-0.81,1.92,0.52,3.42,1.37,4.85
	c2.42,4.1,5.68,7.49,9.64,10.12c3.48,2.31,7.01,4.57,10.65,6.62c1.6,0.9,3.57,1.09,5.28,1.83c0.66,0.28,1.46,1.17,1.47,1.81
	C647.62,385.35,646.64,385.91,645.4,386.01z"/>
<path fill-rule="evenodd" d="M398.44,88.26c-1.06,0.22-2.35,0.29-3.17-0.98c-0.55-0.86-0.21-1.74,0.78-1.79
	c1.73-0.09,3.48-0.2,5.19-0.06c3.84,0.31,6.71,2.04,8.43,5.14c1.89,3.42,3.04,7.01,1.95,10.82c-1.44,5.04-5.44,8.1-10.47,10.31
	c-1.17,0.51-2.25,1.19-3.35,1.81c-0.58,0.33-1.07,0.86-1.69,1.03c-0.67,0.18-1.45,0.05-2.18,0.05c0.24-0.56,0.38-1.18,0.75-1.66
	c1.98-2.54,5.17-3.59,8-5.11c8.71-4.69,7.38-13.97,2.27-18.21C403.66,88.55,401.58,88.13,398.44,88.26z"/>
<path fill-rule="evenodd" d="M385.1,209.29c-1.02-0.34-1.88-0.44-2.39-0.81c-5.12-3.65-5.53-9.02-0.79-13.51
	c4.07-3.86,9.67-5.36,15.21-7.16c0.5-0.16,1.12-0.32,1.6-0.24c0.61,0.1,1.13,0.46,1.69,0.71c-0.35,0.43-0.57,1.07-1.08,1.26
	c-1.47,0.56-3.1,0.87-4.59,1.41c-2.53,0.92-5.39,1.62-7.41,2.99c-3.22,2.19-6.21,4.76-5.6,8.4c0.31,1.85,1.86,3.2,3.93,4.17
	c0.82,0.38,2.39,0.42,1.88,1.43C387.25,208.53,385.95,208.85,385.1,209.29z"/>
<path fill-rule="evenodd" d="M306.05,168.97c-2.72-0.15-4.6-0.23-6.47-0.35c-4.08-0.26-6.37-2.49-8.39-4.84
	c-0.49-0.57-0.31-1.74,0.08-2.47c1.67-3.07,4.57-5.29,8.55-6.58c0.6-0.19,1.46,0.1,2.21,0.17c-0.33,0.5-0.5,1.15-1.02,1.49
	c-1.46,0.98-3.19,1.73-4.59,2.75c-3.33,2.44-2.92,4.33,0.99,6.32c1.7,0.86,3.46,0.71,5.31,0.88c3.05,0.27,5.99,0.12,8.95-0.29
	c1.21-0.17,2.41-0.46,3.57-0.8c1.09-0.32,2.06-0.32,2.56,0.55c0.51,0.89-0.01,1.68-1.13,2.03c-1.21,0.37-2.51,0.67-3.79,0.78
	C310.33,168.82,307.76,168.88,306.05,168.97z"/>
<path fill-rule="evenodd" d="M388.76,109.77c-5.53-0.11-9.41-0.63-12.71-3.06c-2.02-1.48-3.82-5.49-3.13-7.69
	c0.21-0.67,0.68-1.32,1.18-1.86c0.25-0.27,0.96-0.46,1.27-0.33c0.28,0.12,0.4,0.73,0.42,1.12c0.03,0.87-0.22,1.76-0.08,2.61
	c0.69,4.15,5.15,5.95,8.75,6.05c4.91,0.14,9.77-0.34,14.07-2.85c0.76-0.45,1.72-0.74,2.63-0.84c0.59-0.06,1.42,0.22,1.82,0.61
	c0.61,0.6,0.47,1.35-0.33,1.89c-0.25,0.17-0.48,0.39-0.77,0.48C397.12,107.47,392.78,110.33,388.76,109.77z"/>
<path fill-rule="evenodd" d="M389.78,101.97c-2.19-0.77-4.49-1.35-6.55-2.35c-2-0.97-1.67-3.79,0.36-4.92
	c0.95-0.53,1.95-1.02,2.8-1.67c2.59-1.97,5.73-1.59,8.76-1.73c0.3-0.01,0.61,0.12,0.9,0.23c0.87,0.34,1.93,0.73,1.59,1.76
	c-0.37,1.1-1.4,0.86-2.49,0.72c-2.96-0.39-5.87-0.33-8.19,1.81c-1.2,1.1-1.1,1.9,0.57,2.23c1.51,0.3,3.08,0.39,4.63,0.4
	c3.3,0.04,6.43-0.71,9.51-1.71c0.41-0.13,0.87-0.33,1.26-0.27c0.5,0.08,1.19,0.28,1.38,0.62c0.18,0.33,0,1.01-0.3,1.32
	c-0.47,0.49-1.12,0.99-1.8,1.16c-2.64,0.65-5.32,1.23-8,1.72c-1.4,0.25-2.85,0.26-4.28,0.38
	C389.88,101.76,389.83,101.86,389.78,101.97z"/>
<path fill-rule="evenodd" d="M402.33,204.11c2.52,0.24,4.8-0.19,7.03-1.18c0.95-0.42,2.33-0.94,3.33,0.02
	c0.58,0.56-0.35,1.28-2.15,2.06c-2.55,1.1-5.15,1.67-8.09,1.22c-0.93-0.14-1.97-0.1-2.92,0.04c-2.78,0.4-5.21-0.21-7.47-1.27
	c-5.53-2.59-3.95-7.13,0.3-9.24c1.11-0.55,2.43-0.9,3.71-1.21c0.45-0.11,1.06,0.2,1.6,0.32c-0.25,0.33-0.4,0.76-0.76,0.98
	c-1.2,0.71-2.53,1.31-3.73,2.03c-2.46,1.49-2.5,3.11-0.1,4.57c2.08,1.26,4.4,2.07,7.24,1.75
	C400.98,204.12,401.66,204.14,402.33,204.11z"/>
<path fill-rule="evenodd" d="M526.44,122.7c-0.12,0.23-0.21,0.77-0.58,1.06c-2.94,2.39-6.09,4.31-10.65,3.55
	c-1.52-0.25-3.11-0.11-4.66-0.23c-1.17-0.09-2.33-0.29-3.48-0.48c-1.04-0.17-2.1-0.34-3.11-0.64c-1.05-0.31-2.15-0.65-3.03-1.21
	c-0.44-0.28-0.44-1.09-0.63-1.67c0.6-0.1,1.22-0.36,1.8-0.27c5.08,0.78,10.11,2.34,15.27,1.78c1.85-0.2,3.64-1.15,5.25-2.02
	c1.38-0.75,0.93-2.07,0.31-3.19c-0.35-0.63-0.93-1.17-1.4-1.75c-0.59-0.74-0.91-1.54,0-2.14c0.8-0.53,1.55-0.14,2.34,0.4
	C526.48,117.66,526.58,120.02,526.44,122.7z"/>
<path fill-rule="evenodd" d="M314.28,151.37c1.19,0.22,2.49,0.27,3.54,0.7c3.84,1.55,4.48,3.47,1.88,6.13
	c-2.82,2.88-6.29,5.02-11.41,4.64c-2.19-0.16-2.61-0.5-2.31-2.24c0.02-0.14,0.06-0.29,0.04-0.43c-0.14-0.62-0.69-1.49-0.36-1.82
	c0.77-0.78,1.88-1.45,3.03-1.88c1.39-0.51,2.95-0.88,4.48-1.01c0.81-0.07,1.95,0.3,2.52,0.78c0.73,0.6,0.04,1.39-1.22,1.62
	c-1.7,0.31-3.45,0.53-5.09,0.98c-0.76,0.21-1.32,0.87-1.97,1.33c0.82,0.16,1.63,0.42,2.46,0.45c3.71,0.15,5.95-1.81,8.05-3.7
	c1.44-1.3,0.2-2.94-2.33-3.32c-0.77-0.12-1.61,0.01-2.42,0.05c-0.49,0.02-1.05,0.2-1.46,0.08c-0.58-0.17-1.04-0.56-1.56-0.86
	c0.48-0.39,0.88-0.97,1.47-1.13c0.79-0.22,1.73-0.11,2.6-0.14C314.24,151.51,314.26,151.44,314.28,151.37z"/>
<path fill-rule="evenodd" d="M495.41,219.79c-5.03-1.56-9.83-3-14.57-4.54c-2.83-0.92-4.57-2.76-6.3-4.52
	c-0.29-0.29-0.2-0.95,0.07-1.24c0.21-0.22,1.02-0.24,1.53-0.15c0.46,0.09,1.02,0.39,1.29,0.7c1.42,1.55,3.47,2.39,5.64,3.23
	c4.9,1.9,10.03,3.08,15.22,4.14c0.83,0.17,1.71,0.08,2.54,0.24c0.65,0.13,1.25,0.47,1.87,0.71c-0.42,0.38-0.73,1.04-1.27,1.1
	C499.43,219.68,497.36,219.7,495.41,219.79z"/>
<path fill-rule="evenodd" d="M327.05,220.73c2.27-0.37,4.4-0.18,6.28,1.28c0.94,0.73,1.38,1.53,0.88,2.46
	c-0.77,1.42-1.54,2.92-2.72,4.06c-2.29,2.22-5.09,3.86-8.52,4.56c-1.52,0.31-2.94,0.96-4.46,1.28c-0.58,0.12-1.28-0.23-1.93-0.37
	c0.31-0.53,0.46-1.35,0.95-1.55c1.91-0.8,3.9-1.49,5.92-2.08c2.88-0.85,5.22-2.38,7.18-4.34c0.54-0.54,0.96-1.59,0.73-2.2
	c-0.36-0.98-1.59-1.07-2.72-0.92c-2.15,0.28-4.29,0.57-6.45,0.75c-0.53,0.04-1.11-0.32-1.67-0.5c0.2-0.49,0.26-1.24,0.64-1.41
	c1.19-0.52,2.49-0.88,3.79-1.15C325.58,220.47,326.31,220.67,327.05,220.73z"/>
<path fill-rule="evenodd" d="M512.26,121.55c-2.96-0.67-5.96-1.24-8.86-2.1c-0.76-0.23-1.51-1.31-1.72-2.09
	c-0.4-1.43,0.52-2.97,1.91-3.24c1.6-0.32,3.3-0.37,4.97-0.41c0.42-0.01,1.26,0.49,1.25,0.7c-0.02,0.45-0.43,0.91-0.78,1.29
	c-0.16,0.17-0.56,0.18-0.85,0.25c-0.6,0.15-1.21,0.3-1.81,0.46c0.54,0.34,1.15,0.62,1.61,1.03c1.09,0.96,2.33,1.06,3.78,1.09
	c1.97,0.04,3.96,0.37,5.93,0.69c1.16,0.19,1.58,1.37,0.69,1.97c-0.61,0.41-1.54,0.67-2.33,0.65c-1.24-0.02-2.48-0.33-3.72-0.52
	C512.3,121.4,512.28,121.47,512.26,121.55z"/>
<path fill-rule="evenodd" d="M501.74,205.35c0.58,0.34,1.16,0.69,1.74,1.03c-0.58,0.39-1.06,0.93-1.77,1.13
	c-0.64,0.18-1.56,0.12-2.3-0.05c-2.82-0.67-5.37-1.7-7.2-3.58c-1.69-1.73-1.08-3.34,1.51-3.81c2.44-0.44,4.91-0.42,7.15,0.98
	c0.52,0.32,1.07,1.08,0.92,1.42c-0.33,0.72-1.27,0.38-2.16,0.13c-0.97-0.28-2.04-0.49-3.02-0.48c-1.33,0.01-1.58,0.63-0.44,1.26
	c1.63,0.9,3.48,1.58,5.23,2.36C501.51,205.61,501.63,205.48,501.74,205.35z"/>
<path fill-rule="evenodd" d="M402.18,201.49c-1.97,0-3.53-0.42-4.85,0.57c-0.13,0.09-1.22-0.24-1.24-0.43
	c-0.06-0.46,0.06-1.24,0.44-1.37c0.83-0.3,1.86-0.3,2.81-0.4c1.32-0.14,2.66-0.19,3.94-0.42c0.39-0.07,0.63-0.63,0.94-0.97
	c-0.46-0.15-0.93-0.45-1.37-0.41c-1.15,0.1-2.27,0.45-3.41,0.48c-0.65,0.02-1.42-0.31-1.89-0.67c-0.16-0.13,0.29-1.07,0.66-1.17
	c1.88-0.49,3.73-1.22,5.85-0.77c1.74,0.37,2.8,1.1,2.95,2.25c0.14,1.08-0.77,2.25-2.3,2.75
	C403.75,201.22,402.72,201.37,402.18,201.49z"/>
<path fill-rule="evenodd" d="M252.74,299.59c1.41,0.8,2.63,1.36,3.68,2.15c1.04,0.79,2.12,1.68,2.77,2.77
	c0.96,1.63,1.7,3.44,2.26,5.25c0.43,1.37-0.28,2.47-1.29,2.45c-1.26-0.03-1.62-0.95-1.76-2.03c-0.39-2.91-3.46-6.54-6.05-7.14
	c-0.94-0.22-2.12-0.38-1.72-1.64C250.85,300.72,251.87,300.3,252.74,299.59z"/>
<path fill-rule="evenodd" d="M323.72,228.4c-3.65-0.21-6.16,1.06-8.4,2.86c-0.75,0.6-1.49,1.19-2.38,0.29
	c-0.82-0.83-0.28-1.5,0.48-2.12c3.12-2.54,6.64-4.11,11.03-3.69c0.37,0.04,0.83-0.01,1.1,0.16c0.48,0.3,1.13,0.71,1.16,1.11
	c0.03,0.36-0.59,0.95-1.06,1.12C324.92,228.38,324.07,228.36,323.72,228.4z"/>
<path fill-rule="evenodd" d="M251.05,314.5c-1.56-0.28-3.11-0.47-4.62-0.86c-1.37-0.35-1.74-1.59-0.78-2.57
	c1.6-1.64,3.51-2.83,5.81-3.18c1.12-0.17,1.98,0.26,1.97,1.63c0,0.35,0,0.75,0.16,1.04c1.17,2.11,0.69,3.25-1.64,3.8
	C251.65,314.43,251.34,314.45,251.05,314.5z M252.5,311.1c-0.41-0.26-0.63-0.5-0.75-0.46c-0.36,0.13-0.68,0.37-1.01,0.57
	c0.16,0.15,0.34,0.46,0.46,0.44C251.56,311.57,251.91,311.36,252.5,311.1z"/>
<path fill-rule="evenodd" d="M517.21,203.98c-0.76,0.56-1.28,0.94-1.79,1.31c-0.62-0.47-1.62-0.9-1.81-1.42
	c-0.89-2.39-2.73-4.36-5.17-6.14c-0.73-0.53-1.46-1.1-0.82-1.75c0.71-0.72,1.91-0.41,2.58,0.16c1.74,1.48,3.4,3.03,4.89,4.63
	C515.97,201.73,516.47,202.84,517.21,203.98z"/>
<path fill-rule="evenodd" d="M329.13,213.27c2.31,0.66,4.65,1.27,6.92,2.02c0.73,0.24,1.42,0.79,1.88,1.35
	c0.3,0.36,0.33,1.07,0.14,1.5c-0.1,0.21-1.02,0.31-1.49,0.2c-2.69-0.59-5.35-1.25-8.02-1.89c-0.24-0.06-0.56-0.06-0.72-0.2
	c-0.51-0.47-0.97-0.98-1.45-1.48c0.61-0.4,1.21-0.82,1.85-1.18c0.17-0.1,0.49,0,0.75,0.02
	C329.04,213.49,329.09,213.38,329.13,213.27z"/>
<path fill-rule="evenodd" d="M515.57,115.35c-0.87,0.33-1.48,0.74-1.72,0.61c-0.56-0.3-0.95-0.85-1.41-1.3
	c0.48-0.22,1.02-0.7,1.42-0.61C514.38,114.15,514.79,114.71,515.57,115.35z"/>
<path fill-rule="evenodd" fill="none" d="M252.5,311.1c-0.59,0.26-0.94,0.47-1.31,0.55c-0.11,0.03-0.3-0.28-0.46-0.44
	c0.34-0.2,0.65-0.44,1.01-0.57C251.86,310.6,252.09,310.84,252.5,311.1z"/>
<path fill-rule="evenodd" d="M241.94,318.73c-3.03-0.26-6.08-0.4-9.07-0.89c-0.79-0.13-1.69-1.26-2.02-2.12
	c-0.61-1.59,0.08-3.54,1.4-4.1c1.54-0.65,3.21-1.01,4.85-1.35c0.41-0.09,1.32,0.35,1.34,0.6c0.05,0.53-0.29,1.13-0.58,1.63
	c-0.13,0.23-0.53,0.31-0.8,0.44c-0.57,0.29-1.15,0.56-1.72,0.85c0.59,0.3,1.23,0.52,1.75,0.91c1.22,0.92,2.46,0.83,3.9,0.61
	c1.96-0.3,3.98-0.26,5.97-0.23c1.17,0.02,1.77,1.31,0.97,2.17c-0.54,0.58-1.42,1.04-2.21,1.17c-1.22,0.19-2.5,0.05-3.75,0.05
	C241.95,318.56,241.95,318.64,241.94,318.73z"/>
<path fill-rule="evenodd" d="M330.76,236.25c-3.45,1.44-6.8,3.1-10.37,4.23c-1.89,0.6-4.17,0.24-6.27,0.38
	c-5.32,0.34-9.75-1.48-13.7-4.38c-1.69-1.24-2.39-2.82-2.04-4.86c0.48-2.82,1.57-5.31,3.89-7.34c0.22-0.19,0.42-0.47,0.68-0.56
	c0.82-0.25,2.04-0.82,2.44-0.54c1.04,0.73,0.19,1.66-0.5,2.24c-2.04,1.69-3.08,3.76-3.12,6.15c-0.01,0.85,0.26,2.04,0.92,2.52
	c2.47,1.8,5.21,3.19,8.58,3.4c4.25,0.27,8.3,0.09,12.24-1.71c2.3-1.05,4.99-1.44,7.51-2.11c0.94-0.25,2.01-0.42,2.38,0.64
	c0.34,0.96-0.47,1.51-1.41,1.86c-0.35,0.13-0.7,0.25-1.05,0.38C330.87,236.46,330.81,236.35,330.76,236.25z"/>
</svg>
